<svg width="24" height="24" viewBox="0 0 24 24" fill="none" xmlns="http://www.w3.org/2000/svg">
<circle cx="12" cy="12" r="12" fill="black"/>
<path d="M18.9639 8.07003C18.9007 7.75213 18.7598 7.46122 18.5629 7.2209C18.5214 7.16854 18.4781 7.12164 18.4311 7.07475C18.0823 6.72426 17.5928 6.50562 17.058 6.50562H6.94198C6.40722 6.50562 5.91946 6.72426 5.56905 7.07475C5.52216 7.12164 5.47879 7.16854 5.43717 7.2209C5.24021 7.4612 5.09926 7.75213 5.0379 8.07003C5.01269 8.19272 5 8.31952 5 8.4477V15.5525C5 15.8251 5.0578 16.0871 5.16089 16.3237C5.25651 16.5495 5.3975 16.7539 5.56902 16.9253C5.6125 16.9686 5.65568 17.0085 5.70279 17.0482C6.03873 17.3264 6.47238 17.4944 6.94198 17.4944H17.058C17.5278 17.4944 17.9633 17.3264 18.2973 17.0464C18.3443 17.0085 18.3877 16.9686 18.4311 16.9253C18.6025 16.7539 18.7435 16.5495 18.8411 16.3237V16.3219C18.9441 16.0853 19 15.8251 19 15.5525V8.4477C19 8.31952 18.9875 8.19272 18.9639 8.07003ZM6.27173 7.77735C6.44523 7.60404 6.67822 7.49912 6.94198 7.49912H17.058C17.3218 7.49912 17.5568 7.60404 17.7283 7.77735C17.7589 7.80822 17.7879 7.84262 17.8134 7.87679L12.5112 12.4978C12.365 12.6259 12.1844 12.6892 12 12.6892C11.8175 12.6892 11.637 12.6259 11.4888 12.4978L6.18869 7.87483C6.21215 7.84065 6.24105 7.80822 6.27173 7.77735ZM5.99351 15.5525V8.90292L9.83049 12.2502L5.99545 15.5939C5.99351 15.5813 5.99351 15.567 5.99351 15.5525ZM17.058 16.5007H6.94198C6.77023 16.5007 6.60954 16.4556 6.47238 16.3762L10.5187 12.85L10.8964 13.1786C11.2125 13.4533 11.6081 13.5925 12 13.5925C12.3939 13.5925 12.7895 13.4533 13.1056 13.1786L13.4831 12.85L17.5278 16.3762C17.3905 16.4556 17.2298 16.5007 17.058 16.5007ZM18.0065 15.5525C18.0065 15.567 18.0065 15.5813 18.0046 15.5939L14.1696 12.2522L18.0065 8.9047V15.5525Z" fill="white"/>
</svg>
